# xmcd
#
# Track frame offsets:
#	150
#	11588
#	28224
#	47348
#	60838
#	83975
#	102807
#	119419
#	134323
#	155236
#	166075
#	180932
#	199870
#	219092
#	236280
#	252597
#	270093
#	286555
#	305575
#	320015
#
# Disc length: 4533 seconds
#
# Revision: 1
# Processed by: cddbd v1.5.2PL0 Copyright (c) Steve Scherf et al.
# Submitted via: audiograbber 1.83.01
#
DISCID=0111b314
DTITLE=Billy Ray Cyrus - The definetive Collection CD2
DYEAR=1900
DGENRE=Country
TTITLE0=Roll me Over
TTITLE1=Trail of Tears
TTITLE2=Three little words
TTITLE3=Crazy Mama
TTITLE4=Call me Daddy
TTITLE5=Harper Valley P.T.A
TTITLE6=Sing me Back Home
TTITLE7=Truth is I lied
TTITLE8=Should I stay
TTITLE9=Tennlucky
TTITLE10=Busy Man
TTITLE11=Time for letting go
TTITLE12=How´s my World Treating you
TTITLE13=Give my Heart to you
TTITLE14=Deja Blue
TTITLE15=I Ain´t Even Left
TTITLE16=One Last Thrill
TTITLE17=Bluegrass State of Mind
TTITLE18=Cover to Cover
TTITLE19=It´all the same to me
EXTD=
EXTT0=
EXTT1=
EXTT2=
EXTT3=
EXTT4=
EXTT5=
EXTT6=
EXTT7=
EXTT8=
EXTT9=
EXTT10=
EXTT11=
EXTT12=
EXTT13=
EXTT14=
EXTT15=
EXTT16=
EXTT17=
EXTT18=
EXTT19=
PLAYORDER=
